<?xml version="1.0" encoding="utf-8"?>
<!-- Generator: Adobe Illustrator 25.0.1, SVG Export Plug-In . SVG Version: 6.00 Build 0)  -->
<svg version="1.1" id="Layer_1" xmlns="http://www.w3.org/2000/svg" xmlns:xlink="http://www.w3.org/1999/xlink" x="0px" y="0px"
	 viewBox="0 0 155.6 33.8" style="enable-background:new 0 0 155.6 33.8;" xml:space="preserve">
<style type="text/css">
	.st0{fill:#00832D;}
	.st1{fill:#00AC47;}
	.st2{fill:#2684FC;}
	.st3{fill:#0066DA;}
	.st4{fill:#DDA311;}
	.st5{fill:#E94235;}
	.st6{fill:#FFBA00;}
	.st7{fill:#CC3A2D;}
	.st8{fill:#666666;}
</style>
<g id="Layer_2_1_">
	<g id="Layer_1-2">
		<polygon class="st0" points="15.7,31.2 21.2,25.1 18.4,18.3 16.3,20 		"/>
		<path class="st1" d="M12.4,16.3l2.5,14.6c0.1,0.6,0.7,0.8,0.8,0.3L17.8,20l-1-3.5L12.4,16.3z"/>
		<path class="st2" d="M0.7,10.2L51,0.1c1.9-0.3,3.1,0.8,2.1,1.9L26,30.4c-0.4,0.3-0.9,0.3-1.2-0.1c0,0-0.1-0.1-0.1-0.1l-8.1-11.8
			c-0.1-0.2-0.4-0.4-0.6-0.5L0.5,11.2C-0.3,10.8,0,10.3,0.7,10.2z"/>
		<path class="st3" d="M28.3,14.3L17.8,20l-1.1-1.6c-0.1-0.2-0.4-0.4-0.6-0.5l-3.6-1.6l12-4.8"/>
		<path class="st4" d="M24.5,11.6L52.8,0.4c0.2-0.1,0.7,0.3,0.4,0.4L28.3,14.3"/>
		<polygon class="st5" points="32.2,3.8 37.6,6.4 24.5,11.6 14.4,7.5 		"/>
		<polygon class="st5" points="28.3,14.3 40.6,7.6 42.6,13 33.6,22.4 		"/>
		<path class="st6" d="M53.2,0.5c-0.7-0.4-1.5-0.6-2.3-0.4L32.2,3.8l5.3,2.5l15.2-6C52.9,0.3,53.1,0.4,53.2,0.5
			c0.2,0.2,0.1,0.3,0,0.3l0,0L39.8,8.1l2.8,5L53.2,1.9C54,1,53.2,0.5,53.2,0.5z"/>
		<polygon class="st7" points="24.5,11.6 28.3,14.3 39.8,8.1 37.6,6.4 		"/>
	</g>
</g>
<g>
	<path class="st8" d="M76.5,18v8.4h-2.7V5.7h7c1.8,0,3.3,0.6,4.6,1.8c1.3,1.2,1.9,2.6,1.9,4.4c0,1.8-0.6,3.2-1.9,4.4
		c-1.2,1.2-2.8,1.8-4.6,1.8H76.5z M76.5,8.3v7.2h4.4c1.1,0,1.9-0.4,2.6-1.1c0.7-0.7,1.1-1.6,1.1-2.5c0-1-0.4-1.8-1.1-2.5
		c-0.7-0.7-1.6-1.1-2.6-1.1H76.5z"/>
	<path class="st8" d="M92.4,5.7v20.7h-2.7V5.7H92.4z"/>
	<path class="st8" d="M100.9,11.8c2,0,3.5,0.5,4.6,1.6c1.1,1,1.7,2.5,1.7,4.3v8.7h-2.5v-2h-0.1c-1.1,1.6-2.6,2.4-4.4,2.4
		c-1.6,0-2.9-0.5-3.9-1.4c-1-0.9-1.6-2.1-1.6-3.5c0-1.5,0.6-2.6,1.7-3.5c1.1-0.9,2.6-1.3,4.4-1.3c1.6,0,2.9,0.3,3.9,0.9v-0.6
		c0-0.9-0.4-1.7-1.1-2.4c-0.7-0.6-1.6-1-2.6-1c-1.5,0-2.7,0.6-3.5,1.9l-2.3-1.5C96.5,12.7,98.4,11.8,100.9,11.8z M97.5,22
		c0,0.7,0.3,1.3,0.9,1.7c0.6,0.5,1.3,0.7,2.1,0.7c1.1,0,2.1-0.4,3-1.2c0.9-0.8,1.3-1.8,1.3-2.9c-0.8-0.7-2-1-3.5-1
		c-1.1,0-2,0.3-2.7,0.8C97.8,20.6,97.5,21.3,97.5,22z"/>
	<path class="st8" d="M110.3,12.2h2.5v2h0.1c0.4-0.7,1-1.3,1.9-1.7c0.8-0.5,1.7-0.7,2.6-0.7c1.7,0,3.1,0.5,4,1.5
		c0.9,1,1.4,2.4,1.4,4.2v8.9h-2.7v-8.7c-0.1-2.3-1.2-3.5-3.5-3.5c-1.1,0-1.9,0.4-2.7,1.3c-0.7,0.9-1.1,1.9-1.1,3.1v7.8h-2.7V12.2z"
		/>
	<path class="st8" d="M132.2,26.8c-2.1,0-3.8-0.7-5.1-2.1c-1.3-1.4-2-3.2-2-5.4c0-2.2,0.7-3.9,2-5.4c1.3-1.4,3-2.1,5-2.1
		c2.1,0,3.8,0.7,5,2s1.9,3.3,1.9,5.7l0,0.3h-11.1c0,1.4,0.5,2.5,1.4,3.3c0.9,0.8,1.9,1.3,3.2,1.3c1.7,0,3-0.8,4-2.5l2.4,1.2
		c-0.6,1.2-1.5,2.1-2.6,2.8C134.9,26.5,133.7,26.8,132.2,26.8z M128,17.6h8.1c-0.1-1-0.5-1.8-1.2-2.4c-0.7-0.6-1.7-1-2.9-1
		c-1,0-1.9,0.3-2.6,0.9C128.7,15.7,128.2,16.6,128,17.6z"/>
	<path class="st8" d="M144.8,7.4c0,0.5-0.2,1-0.5,1.3c-0.4,0.4-0.8,0.5-1.3,0.5c-0.5,0-1-0.2-1.3-0.5c-0.4-0.4-0.5-0.8-0.5-1.3
		s0.2-1,0.5-1.3c0.4-0.4,0.8-0.5,1.3-0.5c0.5,0,1,0.2,1.3,0.5C144.6,6.4,144.8,6.8,144.8,7.4z M144.2,12.2v14.1h-2.7V12.2H144.2z"/>
	<path class="st8" d="M153.2,26.6c-1.2,0-2.1-0.4-2.9-1.1c-0.8-0.7-1.1-1.7-1.2-3v-7.9h-2.5v-2.4h2.5V7.9h2.7v4.3h3.5v2.4h-3.5v7
		c0,0.9,0.2,1.6,0.5,1.9c0.4,0.3,0.8,0.5,1.2,0.5c0.2,0,0.4,0,0.6-0.1c0.2,0,0.4-0.1,0.6-0.2l0.8,2.4
		C154.9,26.5,154.1,26.6,153.2,26.6z"/>
</g>
</svg>
